  0
SECTION
  2
HEADER
  9
$ACADVER
  1
AC1018
  9
$ACADMAINTVER
 70
     0
  9
$DWGCODEPAGE
  3
ANSI_932
  9
$INSBASE
 10
0.0
 20
0.0
 30
0.0
  9
$EXTMIN
 10
1.000000000000000E+20
 20
1.000000000000000E+20
 30
1.000000000000000E+20
  9
$EXTMAX
 10
-1.000000000000000E+20
 20
-1.000000000000000E+20
 30
-1.000000000000000E+20
  9
$LIMMIN
 10
0.0
 20
0.0
  9
$LIMMAX
 10
12.0
 20
9.0
  9
$ORTHOMODE
 70
     0
  9
$REGENMODE
 70
     1
  9
$FILLMODE
 70
     1
  9
$QTEXTMODE
 70
     0
  9
$MIRRTEXT
 70
     1
  9
$LTSCALE
 40
1.0
  9
$ATTMODE
 70
     1
  9
$TEXTSIZE
 40
0.2
  9
$TRACEWID
 40
0.05
  9
$TEXTSTYLE
  7
Standard
  9
$CLAYER
  8
0
  9
$CELTYPE
  6
ByLayer
  9
$CECOLOR
 62
   256
  9
$CELTSCALE
 40
1.0
  9
$DISPSILH
 70
     0
  9
$DIMSCALE
 40
1.0
  9
$DIMASZ
 40
0.18
  9
$DIMEXO
 40
0.0625
  9
$DIMDLI
 40
0.38
  9
$DIMRND
 40
0.0
  9
$DIMDLE
 40
0.0
  9
$DIMEXE
 40
0.18
  9
$DIMTP
 40
0.0
  9
$DIMTM
 40
0.0
  9
$DIMTXT
 40
0.18
  9
$DIMCEN
 40
0.09
  9
$DIMTSZ
 40
0.0
  9
$DIMTOL
 70
     0
  9
$DIMLIM
 70
     0
  9
$DIMTIH
 70
     1
  9
$DIMTOH
 70
     1
  9
$DIMSE1
 70
     0
  9
$DIMSE2
 70
     0
  9
$DIMTAD
 70
     0
  9
$DIMZIN
 70
     0
  9
$DIMBLK
  1

  9
$DIMASO
 70
     1
  9
$DIMSHO
 70
     1
  9
$DIMPOST
  1

  9
$DIMAPOST
  1

  9
$DIMALT
 70
     0
  9
$DIMALTD
 70
     2
  9
$DIMALTF
 40
25.4
  9
$DIMLFAC
 40
1.0
  9
$DIMTOFL
 70
     0
  9
$DIMTVP
 40
0.0
  9
$DIMTIX
 70
     0
  9
$DIMSOXD
 70
     0
  9
$DIMSAH
 70
     0
  9
$DIMBLK1
  1

  9
$DIMBLK2
  1

  9
$DIMSTYLE
  2
Standard
  9
$DIMCLRD
 70
     0
  9
$DIMCLRE
 70
     0
  9
$DIMCLRT
 70
     0
  9
$DIMTFAC
 40
1.0
  9
$DIMGAP
 40
0.09
  9
$DIMJUST
 70
     0
  9
$DIMSD1
 70
     0
  9
$DIMSD2
 70
     0
  9
$DIMTOLJ
 70
     1
  9
$DIMTZIN
 70
     0
  9
$DIMALTZ
 70
     0
  9
$DIMALTTZ
 70
     0
  9
$DIMUPT
 70
     0
  9
$DIMDEC
 70
     4
  9
$DIMTDEC
 70
     4
  9
$DIMALTU
 70
     2
  9
$DIMALTTD
 70
     2
  9
$DIMTXSTY
  7
Standard
  9
$DIMAUNIT
 70
     0
  9
$DIMADEC
 70
     0
  9
$DIMALTRND
 40
0.0
  9
$DIMAZIN
 70
     0
  9
$DIMDSEP
 70
    46
  9
$DIMATFIT
 70
     3
  9
$DIMFRAC
 70
     0
  9
$DIMLDRBLK
  1

  9
$DIMLUNIT
 70
     2
  9
$DIMLWD
 70
    -2
  9
$DIMLWE
 70
    -2
  9
$DIMTMOVE
 70
     0
  9
$LUNITS
 70
     2
  9
$LUPREC
 70
     4
  9
$SKETCHINC
 40
0.1
  9
$FILLETRAD
 40
0.5
  9
$AUNITS
 70
     0
  9
$AUPREC
 70
     0
  9
$MENU
  1
.
  9
$ELEVATION
 40
0.0
  9
$PELEVATION
 40
0.0
  9
$THICKNESS
 40
0.0
  9
$LIMCHECK
 70
     0
  9
$CHAMFERA
 40
0.5
  9
$CHAMFERB
 40
0.5
  9
$CHAMFERC
 40
1.0
  9
$CHAMFERD
 40
0.0
  9
$SKPOLY
 70
     0
  9
$TDCREATE
 40
2456527.617453704
  9
$TDUCREATE
 40
2456527.575787037
  9
$TDUPDATE
 40
2456527.617453715
  9
$TDUUPDATE
 40
2456527.575787049
  9
$TDINDWG
 40
0.0000000116
  9
$TDUSRTIMER
 40
0.0000000116
  9
$USRTIMER
 70
     1
  9
$ANGBASE
 50
0.0
  9
$ANGDIR
 70
     0
  9
$PDMODE
 70
     0
  9
$PDSIZE
 40
0.0
  9
$PLINEWID
 40
0.0
  9
$SPLFRAME
 70
     0
  9
$SPLINETYPE
 70
     6
  9
$SPLINESEGS
 70
     8
  9
$HANDSEED
  5
93
  9
$SURFTAB1
 70
     6
  9
$SURFTAB2
 70
     6
  9
$SURFTYPE
 70
     6
  9
$SURFU
 70
     6
  9
$SURFV
 70
     6
  9
$UCSBASE
  2

  9
$UCSNAME
  2

  9
$UCSORG
 10
0.0
 20
0.0
 30
0.0
  9
$UCSXDIR
 10
1.0
 20
0.0
 30
0.0
  9
$UCSYDIR
 10
0.0
 20
1.0
 30
0.0
  9
$UCSORTHOREF
  2

  9
$UCSORTHOVIEW
 70
     0
  9
$UCSORGTOP
 10
0.0
 20
0.0
 30
0.0
  9
$UCSORGBOTTOM
 10
0.0
 20
0.0
 30
0.0
  9
$UCSORGLEFT
 10
0.0
 20
0.0
 30
0.0
  9
$UCSORGRIGHT
 10
0.0
 20
0.0
 30
0.0
  9
$UCSORGFRONT
 10
0.0
 20
0.0
 30
0.0
  9
$UCSORGBACK
 10
0.0
 20
0.0
 30
0.0
  9
$PUCSBASE
  2

  9
$PUCSNAME
  2

  9
$PUCSORG
 10
0.0
 20
0.0
 30
0.0
  9
$PUCSXDIR
 10
1.0
 20
0.0
 30
0.0
  9
$PUCSYDIR
 10
0.0
 20
1.0
 30
0.0
  9
$PUCSORTHOREF
  2

  9
$PUCSORTHOVIEW
 70
     0
  9
$PUCSORGTOP
 10
0.0
 20
0.0
 30
0.0
  9
$PUCSORGBOTTOM
 10
0.0
 20
0.0
 30
0.0
  9
$PUCSORGLEFT
 10
0.0
 20
0.0
 30
0.0
  9
$PUCSORGRIGHT
 10
0.0
 20
0.0
 30
0.0
  9
$PUCSORGFRONT
 10
0.0
 20
0.0
 30
0.0
  9
$PUCSORGBACK
 10
0.0
 20
0.0
 30
0.0
  9
$USERI1
 70
     0
  9
$USERI2
 70
     0
  9
$USERI3
 70
     0
  9
$USERI4
 70
     0
  9
$USERI5
 70
     0
  9
$USERR1
 40
0.0
  9
$USERR2
 40
0.0
  9
$USERR3
 40
0.0
  9
$USERR4
 40
0.0
  9
$USERR5
 40
0.0
  9
$WORLDVIEW
 70
     1
  9
$SHADEDGE
 70
     3
  9
$SHADEDIF
 70
    70
  9
$TILEMODE
 70
     1
  9
$MAXACTVP
 70
    64
  9
$PINSBASE
 10
0.0
 20
0.0
 30
0.0
  9
$PLIMCHECK
 70
     0
  9
$PEXTMIN
 10
1.000000000000000E+20
 20
1.000000000000000E+20
 30
1.000000000000000E+20
  9
$PEXTMAX
 10
-1.000000000000000E+20
 20
-1.000000000000000E+20
 30
-1.000000000000000E+20
  9
$PLIMMIN
 10
0.0
 20
0.0
  9
$PLIMMAX
 10
12.0
 20
9.0
  9
$UNITMODE
 70
     0
  9
$VISRETAIN
 70
     1
  9
$PLINEGEN
 70
     0
  9
$PSLTSCALE
 70
     1
  9
$TREEDEPTH
 70
  3020
  9
$CMLSTYLE
  2
Standard
  9
$CMLJUST
 70
     0
  9
$CMLSCALE
 40
1.0
  9
$PROXYGRAPHICS
 70
     1
  9
$MEASUREMENT
 70
     0
  9
$CELWEIGHT
370
    -1
  9
$ENDCAPS
280
     0
  9
$JOINSTYLE
280
     0
  9
$LWDISPLAY
290
     1
  9
$INSUNITS
 70
     1
  9
$HYPERLINKBASE
  1

  9
$STYLESHEET
  1

  9
$XEDIT
290
     1
  9
$CEPSNTYPE
380
     0
  9
$PSTYLEMODE
290
     1
  9
$FINGERPRINTGUID
  2
{3A169574-64FE-D266-6709-A26BD24F0248}
  9
$VERSIONGUID
  2
{FAEB1C32-E019-11D5-929B-00C0DF256EC4}
  9
$EXTNAMES
290
     1
  9
$PSVPSCALE
 40
0.0
  9
$OLESTARTUP
290
     0
  9
$SORTENTS
280
   127
  9
$INDEXCTL
280
     0
  9
$HIDETEXT
280
     1
  9
$XCLIPFRAME
290
     0
  9
$HALOGAP
280
     0
  9
$OBSCOLOR
 70
   257
  9
$OBSLTYPE
280
     0
  9
$INTERSECTIONDISPLAY
280
     0
  9
$INTERSECTIONCOLOR
 70
   257
  9
$DIMASSOC
280
     2
  9
$PROJECTNAME
  1

  0
ENDSEC
  0
SECTION
  2
CLASSES
  0
CLASS
  1
ACDBDICTIONARYWDFLT
  2
AcDbDictionaryWithDefault
  3
ObjectDBX Classes
 90
        0
 91
        3
280
     0
281
     0
  0
CLASS
  1
VISUALSTYLE
  2
AcDbVisualStyle
  3
ObjectDBX Classes
 90
     4095
 91
        3
280
     0
281
     0
  0
ENDSEC
  0
SECTION
  2
TABLES
  0
TABLE
  2
VPORT
  5
8
330
0
100
AcDbSymbolTable
 70
     1
  0
VPORT
  5
29
330
8
100
AcDbSymbolTableRecord
100
AcDbViewportTableRecord
  2
*Active
 70
     0
 10
0.0
 20
0.0
 11
1.0
 21
1.0
 12
0.0
 22
0.0
 13
0.0
 23
0.0
 14
0.5
 24
0.5
 15
0.5
 25
0.5
 16
0.0
 26
0.0
 36
1.0
 17
104.9999647089931
 27
148.4996351082744
 37
0.0
 40
296.9999592356459
 41
0.7070705664688927
 42
50.0
 43
0.0
 44
0.0
 50
0.0
 51
0.0
 71
     0
 72
   100
 73
     1
 74
     3
 75
     0
 76
     0
 77
     0
 78
     0
281
     0
 65
     1
110
0.0
120
0.0
130
0.0
111
1.0
121
0.0
131
0.0
112
0.0
122
1.0
132
0.0
 79
     0
146
0.0
  0
ENDTAB
  0
TABLE
  2
LTYPE
  5
5
330
0
100
AcDbSymbolTable
 70
     1
  0
LTYPE
  5
14
330
5
100
AcDbSymbolTableRecord
100
AcDbLinetypeTableRecord
  2
ByBlock
 70
     0
  3

 72
    65
 73
     0
 40
0.0
  0
LTYPE
  5
15
330
5
100
AcDbSymbolTableRecord
100
AcDbLinetypeTableRecord
  2
ByLayer
 70
     0
  3

 72
    65
 73
     0
 40
0.0
  0
LTYPE
  5
16
330
5
100
AcDbSymbolTableRecord
100
AcDbLinetypeTableRecord
  2
Continuous
 70
     0
  3
Solid line
 72
    65
 73
     0
 40
0.0
  0
ENDTAB
  0
TABLE
  2
LAYER
  5
2
330
0
100
AcDbSymbolTable
 70
     3
  0
LAYER
  5
10
330
2
100
AcDbSymbolTableRecord
100
AcDbLayerTableRecord
  2
0
 70
     0
 62
     7
  6
Continuous
370
    -3
390
F
  0
LAYER
  5
3B
330
2
100
AcDbSymbolTableRecord
100
AcDbLayerTableRecord
  2
Ebene 1
 70
     0
 62
     7
  6
Continuous
370
    -3
390
F
  0
LAYER
  5
79
330
2
100
AcDbSymbolTableRecord
100
AcDbLayerTableRecord
  2
Ebene 3
 70
     0
 62
     7
  6
Continuous
370
    -3
390
F
  0
ENDTAB
  0
TABLE
  2
STYLE
  5
3
330
0
100
AcDbSymbolTable
 70
    11
  0
STYLE
  5
11
330
3
100
AcDbSymbolTableRecord
100
AcDbTextStyleTableRecord
  2
Standard
 70
     0
 40
0.0
 41
1.0
 50
0.0
 71
     0
 42
0.2
  3
txt
  4

  0
STYLE
  5
3D
330
3
100
AcDbSymbolTableRecord
100
AcDbTextStyleTableRecord
  2
Style 1
 70
     0
 40
13.93920407264639
 41
0.9999999403953552
 50
0.0
 71
     0
 42
13.93920407264639
  3
/Users/md/Library/Fonts/MyriadPro-Black.otf
  4

1001
ACAD
1000
Myriad Pro Black
1071
       34
  0
STYLE
  5
3F
330
3
100
AcDbSymbolTableRecord
100
AcDbTextStyleTableRecord
  2
Style 2
 70
     0
 40
13.93920407264639
 41
1.0
 50
0.0
 71
     0
 42
13.93920407264639
  3
/Users/md/Library/Fonts/MyriadPro-Black.otf
  4

1001
ACAD
1000
Myriad Pro Black
1071
       34
  0
STYLE
  5
41
330
3
100
AcDbSymbolTableRecord
100
AcDbTextStyleTableRecord
  2
Style 3
 70
     0
 40
13.93920407264639
 41
0.9999999403953552
 50
0.0
 71
     0
 42
13.93920407264639
  3
/Users/md/Library/Fonts/MyriadPro-Black.otf
  4

1001
ACAD
1000
Myriad Pro Black
1071
       34
  0
STYLE
  5
43
330
3
100
AcDbSymbolTableRecord
100
AcDbTextStyleTableRecord
  2
Style 4
 70
     0
 40
13.9392031575429
 41
1.0
 50
0.0
 71
     0
 42
13.9392031575429
  3
/Users/md/Library/Fonts/MyriadPro-Black.otf
  4

1001
ACAD
1000
Myriad Pro Black
1071
       34
  0
STYLE
  5
45
330
3
100
AcDbSymbolTableRecord
100
AcDbTextStyleTableRecord
  2
Style 5
 70
     0
 40
13.93920407264639
 41
1.0
 50
0.0
 71
     0
 42
13.93920407264639
  3
/Users/md/Library/Fonts/MyriadPro-Black.otf
  4

1001
ACAD
1000
Myriad Pro Black
1071
       34
  0
STYLE
  5
47
330
3
100
AcDbSymbolTableRecord
100
AcDbTextStyleTableRecord
  2
Style 6
 70
     0
 40
13.93920407264639
 41
1.0
 50
0.0
 71
     0
 42
13.93920407264639
  3
/Users/md/Library/Fonts/MyriadPro-Black.otf
  4

1001
ACAD
1000
Myriad Pro Black
1071
       34
  0
STYLE
  5
49
330
3
100
AcDbSymbolTableRecord
100
AcDbTextStyleTableRecord
  2
Style 7
 70
     0
 40
13.93920407264639
 41
1.0
 50
0.0
 71
     0
 42
13.93920407264639
  3
/Users/md/Library/Fonts/MyriadPro-Black.otf
  4

1001
ACAD
1000
Myriad Pro Black
1071
       34
  0
STYLE
  5
4B
330
3
100
AcDbSymbolTableRecord
100
AcDbTextStyleTableRecord
  2
Style 8
 70
     0
 40
13.93920407264639
 41
1.0
 50
0.0
 71
     0
 42
13.93920407264639
  3
/Users/md/Library/Fonts/MyriadPro-Black.otf
  4

1001
ACAD
1000
Myriad Pro Black
1071
       34
  0
STYLE
  5
4D
330
3
100
AcDbSymbolTableRecord
100
AcDbTextStyleTableRecord
  2
Style 9
 70
     0
 40
13.93920407264639
 41
1.0
 50
0.0
 71
     0
 42
13.93920407264639
  3
/Users/md/Library/Fonts/MyriadPro-Black.otf
  4

1001
ACAD
1000
Myriad Pro Black
1071
       34
  0
STYLE
  5
4F
330
3
100
AcDbSymbolTableRecord
100
AcDbTextStyleTableRecord
  2
Style 10
 70
     0
 40
13.93920407264639
 41
1.0
 50
0.0
 71
     0
 42
13.93920407264639
  3
/Users/md/Library/Fonts/MyriadPro-Black.otf
  4

1001
ACAD
1000
Myriad Pro Black
1071
       34
  0
ENDTAB
  0
TABLE
  2
VIEW
  5
6
330
0
100
AcDbSymbolTable
 70
     0
  0
ENDTAB
  0
TABLE
  2
UCS
  5
7
330
0
100
AcDbSymbolTable
 70
     0
  0
ENDTAB
  0
TABLE
  2
APPID
  5
9
330
0
100
AcDbSymbolTable
 70
     1
  0
APPID
  5
12
330
9
100
AcDbSymbolTableRecord
100
AcDbRegAppTableRecord
  2
ACAD
 70
     0
  0
ENDTAB
  0
TABLE
  2
DIMSTYLE
  5
A
330
0
100
AcDbSymbolTable
 70
     1
100
AcDbDimStyleTable
  0
DIMSTYLE
105
27
330
A
100
AcDbSymbolTableRecord
100
AcDbDimStyleTableRecord
  2
Standard
 70
     0
340
11
  0
ENDTAB
  0
TABLE
  2
BLOCK_RECORD
  5
1
330
0
100
AcDbSymbolTable
 70
     5
  0
BLOCK_RECORD
  5
1F
330
1
100
AcDbSymbolTableRecord
100
AcDbBlockTableRecord
  2
*Model_Space
340
22
  0
BLOCK_RECORD
  5
1B
330
1
100
AcDbSymbolTableRecord
100
AcDbBlockTableRecord
  2
*Paper_Space
340
1E
  0
BLOCK_RECORD
  5
23
330
1
100
AcDbSymbolTableRecord
100
AcDbBlockTableRecord
  2
*Paper_Space0
340
26
  0
BLOCK_RECORD
  5
50
330
1
100
AcDbSymbolTableRecord
100
AcDbBlockTableRecord
  2
block 2
340
0
102
{BLKREFS
331
51
102
}
  0
BLOCK_RECORD
  5
54
330
1
100
AcDbSymbolTableRecord
100
AcDbBlockTableRecord
  2
block 3
340
0
102
{BLKREFS
331
55
102
}
  0
BLOCK_RECORD
  5
58
330
1
100
AcDbSymbolTableRecord
100
AcDbBlockTableRecord
  2
block 4
340
0
102
{BLKREFS
331
59
102
}
  0
BLOCK_RECORD
  5
64
330
1
100
AcDbSymbolTableRecord
100
AcDbBlockTableRecord
  2
block 5
340
0
102
{BLKREFS
331
65
102
}
  0
ENDTAB
  0
ENDSEC
  0
SECTION
  2
BLOCKS
  0
BLOCK
  5
20
330
1F
100
AcDbEntity
  8
0
100
AcDbBlockBegin
  2
*Model_Space
 70
     0
 71
     0
 10
0.0
 20
0.0
 30
0.0
  3
*Model_Space
  1

  0
ENDBLK
  5
21
330
1F
100
AcDbEntity
  8
0
100
AcDbBlockEnd
  0
BLOCK
  5
1C
330
1B
100
AcDbEntity
 67
     1
  8
0
100
AcDbBlockBegin
  2
*Paper_Space
 70
     0
 71
     0
 10
0.0
 20
0.0
 30
0.0
  3
*Paper_Space
  1

  0
ENDBLK
  5
1D
330
1B
100
AcDbEntity
 67
     1
  8
0
100
AcDbBlockEnd
  0
BLOCK
  5
24
330
23
100
AcDbEntity
  8
0
100
AcDbBlockBegin
  2
*Paper_Space0
 70
     0
 71
     0
 10
0.0
 20
0.0
 30
0.0
  3
*Paper_Space0
  1

  0
ENDBLK
  5
25
330
23
100
AcDbEntity
  8
0
100
AcDbBlockEnd
  0
BLOCK
  5
52
330
50
100
AcDbEntity
  8
0
100
AcDbBlockBegin
  2
block 2
 70
     0
 71
     0
 10
0.0
 20
0.0
 30
0.0
  3
block 2
  1

  0
INSERT
  5
55
330
50
100
AcDbEntity
  8
Ebene 1
100
AcDbBlockReference
  2
block 3
 10
0.0
 20
0.0
 30
0.0
  0
ENDBLK
  5
53
330
50
100
AcDbEntity
  8
0
100
AcDbBlockEnd
  0
BLOCK
  5
56
330
54
100
AcDbEntity
  8
0
100
AcDbBlockBegin
  2
block 3
 70
     0
 71
     0
 10
0.0
 20
0.0
 30
0.0
  3
block 3
  1

  0
INSERT
  5
59
330
54
100
AcDbEntity
  8
Ebene 1
100
AcDbBlockReference
  2
block 4
 10
0.0
 20
0.0
 30
0.0
  0
INSERT
  5
65
330
54
100
AcDbEntity
  8
Ebene 1
100
AcDbBlockReference
  2
block 5
 10
0.0
 20
0.0
 30
0.0
  0
POLYLINE
  5
72
330
54
100
AcDbEntity
  8
Ebene 1
370
     0
100
AcDb2dPolyline
 66
     1
 10
0.0
 20
0.0
 30
0.0
  0
VERTEX
  5
73
330
72
100
AcDbEntity
  8
Ebene 1
370
     0
100
AcDbVertex
100
AcDb2dVertex
 10
70.2027777602271
 20
259.6437553604363
 30
0.0
  0
VERTEX
  5
74
330
72
100
AcDbEntity
  8
Ebene 1
370
     0
100
AcDbVertex
100
AcDb2dVertex
 10
170.0388888463792
 20
259.6437553604363
 30
0.0
  0
VERTEX
  5
75
330
72
100
AcDbEntity
  8
Ebene 1
370
     0
100
AcDbVertex
100
AcDb2dVertex
 10
170.0388888463792
 20
159.8076442742842
 30
0.0
  0
VERTEX
  5
76
330
72
100
AcDbEntity
  8
Ebene 1
370
     0
100
AcDbVertex
100
AcDb2dVertex
 10
70.2027777602271
 20
159.8076442742842
 30
0.0
  0
VERTEX
  5
77
330
72
100
AcDbEntity
  8
Ebene 1
370
     0
100
AcDbVertex
100
AcDb2dVertex
 10
70.2027777602271
 20
259.6437553604363
 30
0.0
  0
SEQEND
  5
78
330
72
100
AcDbEntity
  8
Ebene 1
370
     0
  0
ENDBLK
  5
57
330
54
100
AcDbEntity
  8
0
100
AcDbBlockEnd
  0
BLOCK
  5
5A
330
58
100
AcDbEntity
  8
0
100
AcDbBlockBegin
  2
block 4
 70
     0
 71
     0
 10
0.0
 20
0.0
 30
0.0
  3
block 4
  1

  0
POLYLINE
  5
5C
330
58
100
AcDbEntity
  8
Ebene 1
370
     0
100
AcDb2dPolyline
 66
     1
 10
0.0
 20
0.0
 30
0.0
  0
VERTEX
  5
5D
330
5C
100
AcDbEntity
  8
Ebene 1
370
     0
100
AcDbVertex
100
AcDb2dVertex
 10
65.02324895292821
 20
259.6437553604363
 30
0.0
  0
VERTEX
  5
5E
330
5C
100
AcDbEntity
  8
Ebene 1
370
     0
100
AcDbVertex
100
AcDb2dVertex
 10
65.02324895292821
 20
154.6343166388588
 30
0.0
  0
VERTEX
  5
5F
330
5C
100
AcDbEntity
  8
Ebene 1
370
     0
100
AcDbVertex
100
AcDb2dVertex
 10
175.2123887365788
 20
154.6343166388588
 30
0.0
  0
VERTEX
  5
60
330
5C
100
AcDbEntity
  8
Ebene 1
370
     0
100
AcDbVertex
100
AcDb2dVertex
 10
175.2123887365788
 20
259.6437553604363
 30
0.0
  0
VERTEX
  5
61
330
5C
100
AcDbEntity
  8
Ebene 1
370
     0
100
AcDbVertex
100
AcDb2dVertex
 10
65.02324895292821
 20
259.6437553604363
 30
0.0
  0
SEQEND
  5
62
330
5C
100
AcDbEntity
  8
Ebene 1
370
     0
  0
SPLINE
  5
63
330
58
100
AcDbEntity
  8
Ebene 1
370
     0
100
AcDbSpline
210
0.0
220
0.0
230
1.0
 70
    11
 71
     3
 72
    20
 73
    16
 74
     0
 42
0.0000000001
 43
0.0000000001
 40
0.0
 40
0.0
 40
0.0
 40
0.0
 40
1.0
 40
1.0
 40
1.0
 40
2.0
 40
2.0
 40
2.0
 40
3.0
 40
3.0
 40
3.0
 40
4.0
 40
4.0
 40
4.0
 40
5.0
 40
5.0
 40
5.0
 40
5.0
 10
71.70018851289093
 20
221.7938693021904
 30
0.0
 10
65.02324895292821
 20
195.0556219672951
 30
0.0
 10
81.3035644327991
 20
167.9699367527124
 30
0.0
 10
108.0406059842746
 20
161.3005764028172
 30
0.0
 10
134.7879828222058
 20
154.6343166388588
 30
0.0
 10
161.8767686227253
 20
170.9099812398246
 30
0.0
 10
168.5475070108145
 20
197.6484008294942
 30
0.0
 10
175.2123887365788
 20
224.3928493362629
 30
0.0
 10
158.9381021738072
 20
251.4814628820081
 30
0.0
 10
132.19210337407
 20
258.1508232319033
 30
0.0
 10
128.1382595165765
 20
259.1593749352102
 30
0.0
 10
124.0799370349522
 20
259.6437553604363
 30
0.0
 10
120.0798366670287
 20
259.6437553604363
 30
0.0
 10
97.70738658581621
 20
259.6406547744996
 30
0.0
 10
77.3535902041859
 20
244.4861964992083
 30
0.0
 10
71.70018851289093
 20
221.7938693021904
 30
0.0
  0
ENDBLK
  5
5B
330
58
100
AcDbEntity
  8
0
100
AcDbBlockEnd
  0
BLOCK
  5
66
330
64
100
AcDbEntity
  8
0
100
AcDbBlockBegin
  2
block 5
 70
     0
 71
     0
 10
0.0
 20
0.0
 30
0.0
  3
block 5
  1

  0
SPLINE
  5
68
330
64
100
AcDbEntity
  8
Ebene 1
370
     0
100
AcDbSpline
210
0.0
220
0.0
230
1.0
 70
    11
 71
     3
 72
   104
 73
   100
 74
     0
 42
0.0000000001
 43
0.0000000001
 40
0.0
 40
0.0
 40
0.0
 40
0.0
 40
1.0
 40
1.0
 40
1.0
 40
2.0
 40
2.0
 40
2.0
 40
3.0
 40
3.0
 40
3.0
 40
4.0
 40
4.0
 40
4.0
 40
5.0
 40
5.0
 40
5.0
 40
6.0
 40
6.0
 40
6.0
 40
7.0
 40
7.0
 40
7.0
 40
8.0
 40
8.0
 40
8.0
 40
9.0
 40
9.0
 40
9.0
 40
10.0
 40
10.0
 40
10.0
 40
11.0
 40
11.0
 40
11.0
 40
12.0
 40
12.0
 40
12.0
 40
13.0
 40
13.0
 40
13.0
 40
14.0
 40
14.0
 40
14.0
 40
15.0
 40
15.0
 40
15.0
 40
16.0
 40
16.0
 40
16.0
 40
17.0
 40
17.0
 40
17.0
 40
18.0
 40
18.0
 40
18.0
 40
19.0
 40
19.0
 40
19.0
 40
20.0
 40
20.0
 40
20.0
 40
21.0
 40
21.0
 40
21.0
 40
22.0
 40
22.0
 40
22.0
 40
23.0
 40
23.0
 40
23.0
 40
24.0
 40
24.0
 40
24.0
 40
25.0
 40
25.0
 40
25.0
 40
26.0
 40
26.0
 40
26.0
 40
27.0
 40
27.0
 40
27.0
 40
28.0
 40
28.0
 40
28.0
 40
29.0
 40
29.0
 40
29.0
 40
30.0
 40
30.0
 40
30.0
 40
31.0
 40
31.0
 40
31.0
 40
32.0
 40
32.0
 40
32.0
 40
33.0
 40
33.0
 40
33.0
 40
33.0
 10
142.126036205788
 20
216.8368936632387
 30
0.0
 10
143.1178791959914
 20
223.4786932492519
 30
0.0
 10
138.0601345140961
 20
227.0495347197133
 30
0.0
 10
131.144105327457
 20
229.4321627573121
 30
0.0
 10
131.144105327457
 20
229.4321627573121
 30
0.0
 10
133.3865179788062
 20
238.4292018718163
 30
0.0
 10
133.3865179788062
 20
238.4292018718163
 30
0.0
 10
133.3865179788062
 20
238.4292018718163
 30
0.0
 10
127.9084716477104
 20
239.7941487030723
 30
0.0
 10
127.9084716477104
 20
239.7941487030723
 30
0.0
 10
127.9084716477104
 20
239.7941487030723
 30
0.0
 10
125.7266926769017
 20
231.0346489222761
 30
0.0
 10
125.7266926769017
 20
231.0346489222761
 30
0.0
 10
124.2856092354217
 20
231.3943168909362
 30
0.0
 10
122.8066297436039
 20
231.7293524268767
 30
0.0
 10
121.3379855382419
 20
232.067488548754
 30
0.0
 10
121.3379855382419
 20
232.067488548754
 30
0.0
 10
123.5407795915106
 20
240.8848659337024
 30
0.0
 10
123.5407795915106
 20
240.8848659337024
 30
0.0
 10
123.5407795915106
 20
240.8848659337024
 30
0.0
 10
118.0613552222208
 20
242.2498127649584
 30
0.0
 10
118.0613552222208
 20
242.2498127649584
 30
0.0
 10
118.0613552222208
 20
242.2498127649584
 30
0.0
 10
115.8189425708717
 20
233.2557019816167
 30
0.0
 10
115.8189425708717
 20
233.2557019816167
 30
0.0
 10
114.6259060043296
 20
233.5270032510801
 30
0.0
 10
113.4559515775388
 20
233.7950316798325
 30
0.0
 10
112.3211371246975
 20
234.0752901975576
 30
0.0
 10
112.3211371246975
 20
234.0752901975576
 30
0.0
 10
112.3242377106342
 20
234.1057792926021
 30
0.0
 10
112.3242377106342
 20
234.1057792926021
 30
0.0
 10
112.3242377106342
 20
234.1057792926021
 30
0.0
 10
104.7743109547092
 20
235.9917968160021
 30
0.0
 10
104.7743109547092
 20
235.9917968160021
 30
0.0
 10
104.7743109547092
 20
235.9917968160021
 30
0.0
 10
103.313418214189
 20
230.1420246820478
 30
0.0
 10
103.313418214189
 20
230.1420246820478
 30
0.0
 10
103.313418214189
 20
230.1420246820478
 30
0.0
 10
107.3791476511066
 20
229.2097818437392
 30
0.0
 10
107.295431830815
 20
229.151904239587
 30
0.0
 10
109.5133843042189
 20
228.5972438664618
 30
0.0
 10
109.9126708709593
 20
227.1318725018108
 30
0.0
 10
109.8472140567396
 20
225.9679469921191
 30
0.0
 10
109.8472140567396
 20
225.9679469921191
 30
0.0
 10
107.2923312448783
 20
215.7156873375641
 30
0.0
 10
107.2923312448783
 20
215.7156873375641
 30
0.0
 10
107.4449489748749
 20
215.6789970706462
 30
0.0
 10
107.6413194175341
 20
215.621119466494
 30
0.0
 10
107.8590494522019
 20
215.5358533532341
 30
0.0
 10
107.6795599774204
 20
215.5785725372512
 30
0.0
 10
107.4828450252126
 20
215.63024896953
 30
0.0
 10
107.2788953724858
 20
215.6789970706462
 30
0.0
 10
107.2788953724858
 20
215.6789970706462
 30
0.0
 10
103.6973741060201
 20
201.3165662474139
 30
0.0
 10
103.6973741060201
 20
201.3165662474139
 30
0.0
 10
103.4260728365567
 20
200.6463229207586
 30
0.0
 10
102.7406710897662
 20
199.6348428862892
 30
0.0
 10
101.189861357081
 20
200.0187987781203
 30
0.0
 10
101.2430880823281
 20
199.9395615819596
 30
0.0
 10
97.20767548568072
 20
201.0120198065178
 30
0.0
 10
97.20767548568072
 20
201.0120198065178
 30
0.0
 10
97.20767548568072
 20
201.0120198065178
 30
0.0
 10
94.48846161917302
 20
194.7417737685889
 30
0.0
 10
94.48846161917302
 20
194.7417737685889
 30
0.0
 10
94.48846161917302
 20
194.7417737685889
 30
0.0
 10
101.6163641781549
 20
192.9654825363941
 30
0.0
 10
101.6163641781549
 20
192.9654825363941
 30
0.0
 10
102.9432427042989
 20
192.633375331616
 30
0.0
 10
104.2411824283668
 20
192.2861097067028
 30
0.0
 10
105.5191405986202
 20
191.9569308330872
 30
0.0
 10
105.5191405986202
 20
191.9569308330872
 30
0.0
 10
103.2555406100368
 20
182.8563665992512
 30
0.0
 10
103.2555406100368
 20
182.8563665992512
 30
0.0
 10
103.2555406100368
 20
182.8563665992512
 30
0.0
 10
108.7275580240334
 20
181.4914197679952
 30
0.0
 10
108.7275580240334
 20
181.4914197679952
 30
0.0
 10
108.7275580240334
 20
181.4914197679952
 30
0.0
 10
110.9699706753825
 20
190.4944877995986
 30
0.0
 10
110.9699706753825
 20
190.4944877995986
 30
0.0
 10
112.4644530968839
 20
190.0924451564699
 30
0.0
 10
113.9162163343682
 20
189.714518181738
 30
0.0
 10
115.334217636097
 20
189.3641519708881
 30
0.0
 10
115.334217636097
 20
189.3641519708881
 30
0.0
 10
113.0980061566213
 20
180.4038031233018
 30
0.0
 10
113.0980061566213
 20
180.4038031233018
 30
0.0
 10
113.0980061566213
 20
180.4038031233018
 30
0.0
 10
118.5760524877171
 20
179.0388562920458
 30
0.0
 10
118.5760524877171
 20
179.0388562920458
 30
0.0
 10
118.5760524877171
 20
179.0388562920458
 30
0.0
 10
120.8415472788174
 20
188.12116151981
 30
0.0
 10
120.8415472788174
 20
188.12116151981
 30
0.0
 10
130.1825791775238
 20
186.3510714594886
 30
0.0
 10
137.2085069101423
 20
187.0638617153868
 30
0.0
 10
140.1623317791955
 20
195.5126138834135
 30
0.0
 10
142.5463378549884
 20
202.3159884476849
 30
0.0
 10
140.0482991186338
 20
206.2371961289963
 30
0.0
 10
135.1307698229882
 20
208.7963853102141
 30
0.0
 10
138.7091905035172
 20
209.6190741120918
 30
0.0
 10
141.4039441920796
 20
211.9741413858086
 30
0.0
 10
142.126036205788
 20
216.8368936632387
 30
0.0
  0
SPLINE
  5
69
330
64
100
AcDbEntity
  8
Ebene 1
370
     0
100
AcDbSpline
210
0.0
220
0.0
230
1.0
 70
    11
 71
     3
 72
    14
 73
    10
 74
     0
 42
0.0000000001
 43
0.0000000001
 40
0.0
 40
0.0
 40
0.0
 40
0.0
 40
1.0
 40
1.0
 40
1.0
 40
2.0
 40
2.0
 40
2.0
 40
3.0
 40
3.0
 40
3.0
 40
3.0
 10
129.6082817601327
 20
199.287577261376
 30
0.0
 10
127.9143283100353
 20
192.4871310282671
 30
0.0
 10
116.464897974356
 20
196.1645982039971
 30
0.0
 10
112.7521185699023
 20
197.0877115392697
 30
0.0
 10
112.7521185699023
 20
197.0877115392697
 30
0.0
 10
115.7593424189768
 20
209.1438231899016
 30
0.0
 10
115.7593424189768
 20
209.1438231899016
 30
0.0
 10
119.4717773138821
 20
208.2176092686921
 30
0.0
 10
131.3769937822599
 20
206.3803398464084
 30
0.0
 10
129.6082817601327
 20
199.287577261376
 30
0.0
  0
SPLINE
  5
6A
330
64
100
AcDbEntity
  8
Ebene 1
370
     0
100
AcDbSpline
210
0.0
220
0.0
230
1.0
 70
    11
 71
     3
 72
    14
 73
    10
 74
     0
 42
0.0000000001
 43
0.0000000001
 40
0.0
 40
0.0
 40
0.0
 40
0.0
 40
1.0
 40
1.0
 40
1.0
 40
2.0
 40
2.0
 40
2.0
 40
3.0
 40
3.0
 40
3.0
 40
3.0
 10
131.3025797197785
 20
216.9343898654713
 30
0.0
 10
129.7608994901292
 20
210.7494099408023
 30
0.0
 10
120.2276312633459
 20
213.8906480042531
 30
0.0
 10
117.1349690462371
 20
214.6614881190777
 30
0.0
 10
117.1349690462371
 20
214.6614881190777
 30
0.0
 10
119.8617621228123
 20
225.5962211892607
 30
0.0
 10
119.8617621228123
 20
225.5962211892607
 30
0.0
 10
122.9544243399211
 20
224.825381074436
 30
0.0
 10
132.9124728400358
 20
223.3873982188927
 30
0.0
 10
131.3025797197785
 20
216.9343898654713
 30
0.0
  0
POLYLINE
  5
6B
330
64
100
AcDbEntity
  8
Ebene 1
370
     0
100
AcDb2dPolyline
 66
     1
 10
0.0
 20
0.0
 30
0.0
  0
VERTEX
  5
6C
330
6B
100
AcDbEntity
  8
Ebene 1
370
     0
100
AcDbVertex
100
AcDb2dVertex
 10
70.2027777602271
 20
259.6437553604363
 30
0.0
  0
VERTEX
  5
6D
330
6B
100
AcDbEntity
  8
Ebene 1
370
     0
100
AcDbVertex
100
AcDb2dVertex
 10
170.0388888463792
 20
259.6437553604363
 30
0.0
  0
VERTEX
  5
6E
330
6B
100
AcDbEntity
  8
Ebene 1
370
     0
100
AcDbVertex
100
AcDb2dVertex
 10
170.0388888463792
 20
159.8076442742842
 30
0.0
  0
VERTEX
  5
6F
330
6B
100
AcDbEntity
  8
Ebene 1
370
     0
100
AcDbVertex
100
AcDb2dVertex
 10
70.2027777602271
 20
159.8076442742842
 30
0.0
  0
VERTEX
  5
70
330
6B
100
AcDbEntity
  8
Ebene 1
370
     0
100
AcDbVertex
100
AcDb2dVertex
 10
70.2027777602271
 20
259.6437553604363
 30
0.0
  0
SEQEND
  5
71
330
6B
100
AcDbEntity
  8
Ebene 1
370
     0
  0
ENDBLK
  5
67
330
64
100
AcDbEntity
  8
0
100
AcDbBlockEnd
  0
ENDSEC
  0
SECTION
  2
ENTITIES
  0
TEXT
  5
3C
330
1F
100
AcDbEntity
  8
Ebene 1
 62
   179
420
  1709851
100
AcDbText
 10
54.42458494733135
 20
192.1173000279256
 30
0.0
 40
13.93920407264639
  1
K
 50
291.4105946744843
 41
0.9999999403953552
  7
Style 1
100
AcDbText
  0
TEXT
  5
3E
330
1F
100
AcDbEntity
  8
Ebene 1
 62
   179
420
  1709851
100
AcDbText
 10
59.4127387004246
 20
179.2991332559565
 30
0.0
 40
13.93920407264639
  1
O
 50
303.7196337476011
  7
Style 2
100
AcDbText
  0
TEXT
  5
40
330
1F
100
AcDbEntity
  8
Ebene 1
 62
   179
420
  1709851
100
AcDbText
 10
68.60666502191084
 20
165.8599880227711
 30
0.0
 40
13.93920407264639
  1
N
 50
317.1241258805613
 41
0.9999999403953552
  7
Style 3
100
AcDbText
  0
TEXT
  5
42
330
1F
100
AcDbEntity
  8
Ebene 1
 62
   179
420
  1709851
100
AcDbText
 10
80.26951902290138
 20
155.2304904125813
 30
0.0
 40
13.9392031575429
  1
D
 50
330.387588267539
  7
Style 4
100
AcDbText
  0
TEXT
  5
44
330
1F
100
AcDbEntity
  8
Ebene 1
 62
   179
420
  1709851
100
AcDbText
 10
94.13999021084001
 20
147.497973595938
 30
0.0
 40
13.93920407264639
  1
O
 50
343.9783806403004
  7
Style 5
100
AcDbText
  0
TEXT
  5
46
330
1F
100
AcDbEntity
  8
Ebene 1
 62
   179
420
  1709851
100
AcDbText
 10
109.8554822859042
 20
143.2904784798024
 30
0.0
 40
13.93920407264639
  1
C
 50
356.5886856973282
  7
Style 6
100
AcDbText
  0
TEXT
  5
48
330
1F
100
AcDbEntity
  8
Ebene 1
 62
   179
420
  1709851
100
AcDbText
 10
122.8238552210302
 20
142.444363028625
 30
0.0
 40
13.93920407264639
  1
O
 50
8.479159906420264
  7
Style 7
100
AcDbText
  0
TEXT
  5
4A
330
1F
100
AcDbEntity
  8
Ebene 1
 62
   179
420
  1709851
100
AcDbText
 10
137.9595377259268
 20
145.1029432145923
 30
0.0
 40
13.93920407264639
  1
.
 50
17.63233995561031
  7
Style 8
100
AcDbText
  0
TEXT
  5
4C
330
1F
100
AcDbEntity
  8
Ebene 1
 62
   179
420
  1709851
100
AcDbText
 10
144.6926323422991
 20
147.3029811914729
 30
0.0
 40
13.93920407264639
  1
I
 50
23.83598562777404
  7
Style 9
100
AcDbText
  0
TEXT
  5
4E
330
1F
100
AcDbEntity
  8
Ebene 1
 62
   179
420
  1709851
100
AcDbText
 10
151.7127034125927
 20
150.1446682024812
 30
0.0
 40
13.93920407264639
  1
N
 50
33.65493751253743
  7
Style 10
100
AcDbText
  0
INSERT
  5
51
330
1F
100
AcDbEntity
  8
Ebene 1
100
AcDbBlockReference
  2
block 2
 10
0.0
 20
0.0
 30
0.0
  0
POLYLINE
  5
7A
330
1F
100
AcDbEntity
  8
Ebene 3
370
     0
100
AcDb2dPolyline
 66
     1
 10
0.0
 20
0.0
 30
0.0
  0
VERTEX
  5
7B
330
7A
100
AcDbEntity
  8
Ebene 3
370
     0
100
AcDbVertex
100
AcDb2dVertex
 10
121.3555555252167
 20
255.7249592459646
 30
0.0
  0
VERTEX
  5
7C
330
7A
100
AcDbEntity
  8
Ebene 3
370
     0
100
AcDbVertex
100
AcDb2dVertex
 10
166.8638888471729
 20
255.7249592459646
 30
0.0
  0
VERTEX
  5
7D
330
7A
100
AcDbEntity
  8
Ebene 3
370
     0
100
AcDbVertex
100
AcDb2dVertex
 10
166.8638888471729
 20
120.6110703908542
 30
0.0
  0
VERTEX
  5
7E
330
7A
100
AcDbEntity
  8
Ebene 3
370
     0
100
AcDbVertex
100
AcDb2dVertex
 10
47.27222221040417
 20
120.6110703908542
 30
0.0
  0
VERTEX
  5
7F
330
7A
100
AcDbEntity
  8
Ebene 3
370
     0
100
AcDbVertex
100
AcDb2dVertex
 10
47.27222221040417
 20
255.7249592459646
 30
0.0
  0
VERTEX
  5
80
330
7A
100
AcDbEntity
  8
Ebene 3
370
     0
100
AcDbVertex
100
AcDb2dVertex
 10
121.3555555252167
 20
255.7249592459646
 30
0.0
  0
SEQEND
  5
81
330
7A
100
AcDbEntity
  8
Ebene 3
370
     0
  0
POLYLINE
  5
82
330
1F
100
AcDbEntity
  8
Ebene 3
370
     0
100
AcDb2dPolyline
 66
     1
 10
0.0
 20
0.0
 30
0.0
  0
VERTEX
  5
83
330
82
100
AcDbEntity
  8
Ebene 3
370
     0
100
AcDbVertex
100
AcDb2dVertex
 10
161.9249999595187
 20
255.7638888249479
 30
0.0
  0
VERTEX
  5
84
330
82
100
AcDbEntity
  8
Ebene 3
370
     0
100
AcDbVertex
100
AcDb2dVertex
 10
164.0416666256563
 20
255.7638888249479
 30
0.0
  0
SEQEND
  5
85
330
82
100
AcDbEntity
  8
Ebene 3
370
     0
  0
POLYLINE
  5
86
330
1F
100
AcDbEntity
  8
Ebene 3
370
     0
100
AcDb2dPolyline
 66
     1
 10
0.0
 20
0.0
 30
0.0
  0
VERTEX
  5
87
330
86
100
AcDbEntity
  8
Ebene 3
370
     0
100
AcDbVertex
100
AcDb2dVertex
 10
65.6166666502625
 20
255.7638888249479
 30
0.0
  0
VERTEX
  5
88
330
86
100
AcDbEntity
  8
Ebene 3
370
     0
100
AcDbVertex
100
AcDb2dVertex
 10
161.9249999595187
 20
255.7638888249479
 30
0.0
  0
SEQEND
  5
89
330
86
100
AcDbEntity
  8
Ebene 3
370
     0
  0
POLYLINE
  5
8A
330
1F
100
AcDbEntity
  8
Ebene 3
370
     0
100
AcDb2dPolyline
 66
     1
 10
0.0
 20
0.0
 30
0.0
  0
VERTEX
  5
8B
330
8A
100
AcDbEntity
  8
Ebene 3
370
     0
100
AcDbVertex
100
AcDb2dVertex
 10
164.0416666256563
 20
255.7638888249479
 30
0.0
  0
VERTEX
  5
8C
330
8A
100
AcDbEntity
  8
Ebene 3
370
     0
100
AcDbVertex
100
AcDb2dVertex
 10
166.8638888471729
 20
255.7638888249479
 30
0.0
  0
VERTEX
  5
8D
330
8A
100
AcDbEntity
  8
Ebene 3
370
     0
100
AcDbVertex
100
AcDb2dVertex
 10
166.8638888471729
 20
120.2972221921479
 30
0.0
  0
VERTEX
  5
8E
330
8A
100
AcDbEntity
  8
Ebene 3
370
     0
100
AcDbVertex
100
AcDb2dVertex
 10
47.27222221040417
 20
120.2972221921479
 30
0.0
  0
VERTEX
  5
8F
330
8A
100
AcDbEntity
  8
Ebene 3
370
     0
100
AcDbVertex
100
AcDb2dVertex
 10
47.27222221040417
 20
255.7638888249479
 30
0.0
  0
VERTEX
  5
90
330
8A
100
AcDbEntity
  8
Ebene 3
370
     0
100
AcDbVertex
100
AcDb2dVertex
 10
65.6166666502625
 20
255.7638888249479
 30
0.0
  0
SEQEND
  5
91
330
8A
100
AcDbEntity
  8
Ebene 3
370
     0
  0
ENDSEC
  0
SECTION
  2
OBJECTS
  0
DICTIONARY
  5
C
330
0
100
AcDbDictionary
281
     1
  3
ACAD_GROUP
350
D
  3
ACAD_LAYOUT
350
1A
  3
ACAD_MLINESTYLE
350
17
  3
ACAD_PLOTSETTINGS
350
19
  3
ACAD_PLOTSTYLENAME
350
E
  3
ACAD_TABLESTYLE
350
92
  3
ACAD_VISUALSTYLE
350
2A
  0
DICTIONARY
  5
D
102
{ACAD_REACTORS
330
C
102
}
330
C
100
AcDbDictionary
281
     1
  0
DICTIONARY
  5
1A
102
{ACAD_REACTORS
330
C
102
}
330
C
100
AcDbDictionary
281
     1
  3
Layout1
350
1E
  3
Layout2
350
26
  3
Model
350
22
  0
DICTIONARY
  5
17
102
{ACAD_REACTORS
330
C
102
}
330
C
100
AcDbDictionary
281
     1
  3
Standard
350
18
  0
DICTIONARY
  5
19
102
{ACAD_REACTORS
330
C
102
}
330
C
100
AcDbDictionary
281
     1
  0
ACDBDICTIONARYWDFLT
  5
E
102
{ACAD_REACTORS
330
C
102
}
330
C
100
AcDbDictionary
281
     1
  3
Normal
350
F
100
AcDbDictionaryWithDefault
340
F
  0
DICTIONARY
  5
92
102
{ACAD_REACTORS
330
C
102
}
330
C
100
AcDbDictionary
281
     1
  0
DICTIONARY
  5
2A
102
{ACAD_REACTORS
330
C
102
}
330
C
100
AcDbDictionary
281
     1
  3
2dWireframe
350
2F
  3
3D Hidden
350
31
  3
3dWireframe
350
30
  3
Basic
350
32
  3
Brighten
350
36
  3
ColorChange
350
3A
  3
Conceptual
350
34
  3
Dim
350
35
  3
Facepattern
350
39
  3
Flat
350
2B
  3
FlatWithEdges
350
2C
  3
Gouraud
350
2D
  3
GouraudWithEdges
350
2E
  3
Linepattern
350
38
  3
Realistic
350
33
  3
Thicken
350
37
  0
LAYOUT
  5
1E
102
{ACAD_REACTORS
330
1A
102
}
330
1A
100
AcDbPlotSettings
  1

  2
none_device
  4

  6

 40
0.0
 41
0.0
 42
0.0
 43
0.0
 44
0.0
 45
0.0
 46
0.0
 47
0.0
 48
0.0
 49
0.0
140
0.0
141
0.0
142
1.0
143
1.0
 70
   688
 72
     0
 73
     0
 74
     5
  7

 75
    16
 76
     0
 77
     2
 78
   300
147
1.0
148
0.0
149
0.0
100
AcDbLayout
  1
Layout1
 70
     1
 71
     1
 10
0.0
 20
0.0
 11
12.0
 21
9.0
 12
0.0
 22
0.0
 32
0.0
 14
1.000000000000000E+20
 24
1.000000000000000E+20
 34
1.000000000000000E+20
 15
-1.000000000000000E+20
 25
-1.000000000000000E+20
 35
-1.000000000000000E+20
146
0.0
 13
0.0
 23
0.0
 33
0.0
 16
1.0
 26
0.0
 36
0.0
 17
0.0
 27
1.0
 37
0.0
 76
     0
330
1B
  0
LAYOUT
  5
26
102
{ACAD_REACTORS
330
1A
102
}
330
1A
100
AcDbPlotSettings
  1

  2
none_device
  4

  6

 40
0.0
 41
0.0
 42
0.0
 43
0.0
 44
0.0
 45
0.0
 46
0.0
 47
0.0
 48
0.0
 49
0.0
140
0.0
141
0.0
142
1.0
143
1.0
 70
   688
 72
     0
 73
     0
 74
     5
  7

 75
    16
 76
     0
 77
     2
 78
   300
147
1.0
148
0.0
149
0.0
100
AcDbLayout
  1
Layout2
 70
     1
 71
     2
 10
0.0
 20
0.0
 11
0.0
 21
0.0
 12
0.0
 22
0.0
 32
0.0
 14
0.0
 24
0.0
 34
0.0
 15
0.0
 25
0.0
 35
0.0
146
0.0
 13
0.0
 23
0.0
 33
0.0
 16
1.0
 26
0.0
 36
0.0
 17
0.0
 27
1.0
 37
0.0
 76
     0
330
23
  0
LAYOUT
  5
22
102
{ACAD_REACTORS
330
1A
102
}
330
1A
100
AcDbPlotSettings
  1

  2
none_device
  4

  6

 40
0.0
 41
0.0
 42
0.0
 43
0.0
 44
0.0
 45
0.0
 46
0.0
 47
0.0
 48
0.0
 49
0.0
140
0.0
141
0.0
142
1.0
143
1.0
 70
  1712
 72
     0
 73
     0
 74
     0
  7

 75
     0
 76
     0
 77
     2
 78
   300
147
1.0
148
0.0
149
0.0
100
AcDbLayout
  1
Model
 70
     1
 71
     0
 10
0.0
 20
0.0
 11
12.0
 21
9.0
 12
0.0
 22
0.0
 32
0.0
 14
1.000000000000000E+20
 24
1.000000000000000E+20
 34
1.000000000000000E+20
 15
-1.000000000000000E+20
 25
-1.000000000000000E+20
 35
-1.000000000000000E+20
146
0.0
 13
0.0
 23
0.0
 33
0.0
 16
1.0
 26
0.0
 36
0.0
 17
0.0
 27
1.0
 37
0.0
 76
     0
330
1F
331
29
  0
MLINESTYLE
  5
18
102
{ACAD_REACTORS
330
17
102
}
330
17
100
AcDbMlineStyle
  2
Standard
 70
     0
  3

 62
   256
 51
90.0
 52
90.0
 71
     2
 49
0.5
 62
   256
  6
BYLAYER
 49
-0.5
 62
   256
  6
BYLAYER
  0
ACDBPLACEHOLDER
  5
F
102
{ACAD_REACTORS
330
E
102
}
330
E
  0
VISUALSTYLE
  5
2F
102
{ACAD_REACTORS
330
2A
102
}
330
2A
100
AcDbVisualStyle
  2
2dWireframe
 70
     4
 71
     0
 72
     2
 73
     0
 90
        0
 40
-0.6
 41
-30.0
 62
     5
 63
     7
421
 16777215
 74
     1
 91
        4
 64
     7
 65
   257
 75
     1
175
     1
 42
1.0
 92
        0
 66
   257
 43
1.0
 76
     1
 77
     6
 78
     2
 67
     7
 79
     5
170
     0
171
     0
290
     0
174
     0
 93
        1
 44
0.0
173
     0
291
     0
 45
0.0
1001
ACAD
1000
AcDbSavedByObjectVersion
1070
     0
  0
VISUALSTYLE
  5
31
102
{ACAD_REACTORS
330
2A
102
}
330
2A
100
AcDbVisualStyle
  2
3D Hidden
 70
     6
 71
     1
 72
     2
 73
     2
 90
        0
 40
-0.6
 41
-30.0
 62
     5
 63
     7
421
 16777215
 74
     2
 91
        2
 64
     7
 65
   257
 75
     2
175
     1
 42
40.0
 92
        0
 66
   257
 43
1.0
 76
     1
 77
     6
 78
     2
 67
     7
 79
     3
170
     0
171
     0
290
     0
174
     0
 93
        1
 44
0.0
173
     0
291
     0
 45
0.0
1001
ACAD
1000
AcDbSavedByObjectVersion
1070
     0
  0
VISUALSTYLE
  5
30
102
{ACAD_REACTORS
330
2A
102
}
330
2A
100
AcDbVisualStyle
  2
3dWireframe
 70
     5
 71
     0
 72
     2
 73
     0
 90
        0
 40
-0.6
 41
-30.0
 62
     5
 63
     7
421
 16777215
 74
     1
 91
        4
 64
     7
 65
   257
 75
     1
175
     1
 42
1.0
 92
        0
 66
   257
 43
1.0
 76
     1
 77
     6
 78
     2
 67
     7
 79
     5
170
     0
171
     0
290
     0
174
     0
 93
        1
 44
0.0
173
     0
291
     0
 45
0.0
1001
ACAD
1000
AcDbSavedByObjectVersion
1070
     0
  0
VISUALSTYLE
  5
32
102
{ACAD_REACTORS
330
2A
102
}
330
2A
100
AcDbVisualStyle
  2
Basic
 70
     7
 71
     1
 72
     0
 73
     1
 90
        0
 40
-0.6
 41
-30.0
 62
     5
 63
     7
421
 16777215
 74
     0
 91
        4
 64
     7
 65
   257
 75
     1
175
     1
 42
1.0
 92
        8
 66
     7
 43
1.0
 76
     1
 77
     6
 78
     2
 67
     7
 79
     5
170
     0
171
     0
290
     0
174
     0
 93
        1
 44
0.0
173
     0
291
     1
 45
0.0
1001
ACAD
1000
AcDbSavedByObjectVersion
1070
     0
  0
VISUALSTYLE
  5
36
102
{ACAD_REACTORS
330
2A
102
}
330
2A
100
AcDbVisualStyle
  2
Brighten
 70
    12
 71
     2
 72
     2
 73
     0
 90
        0
 40
-0.6
 41
-30.0
 62
     5
 63
     7
421
 16777215
 74
     1
 91
        4
 64
     7
 65
   257
 75
     1
175
     1
 42
1.0
 92
        8
 66
     7
 43
1.0
 76
     1
 77
     6
 78
     2
 67
     7
 79
     5
170
     0
171
     0
290
     0
174
     0
 93
        1
 44
50.0
173
     0
291
     1
 45
0.0
1001
ACAD
1000
AcDbSavedByObjectVersion
1070
     0
  0
VISUALSTYLE
  5
3A
102
{ACAD_REACTORS
330
2A
102
}
330
2A
100
AcDbVisualStyle
  2
ColorChange
 70
    16
 71
     2
 72
     2
 73
     3
 90
        0
 40
-0.6
 41
-30.0
 62
     5
 63
     8
421
  8421504
 74
     1
 91
        4
 64
     7
 65
   257
 75
     1
175
     1
 42
1.0
 92
        8
 66
     8
424
  8421504
 43
1.0
 76
     1
 77
     6
 78
     2
 67
     7
 79
     5
170
     0
171
     0
290
     0
174
     0
 93
        1
 44
0.0
173
     0
291
     1
 45
0.0
1001
ACAD
1000
AcDbSavedByObjectVersion
1070
     0
  0
VISUALSTYLE
  5
34
102
{ACAD_REACTORS
330
2A
102
}
330
2A
100
AcDbVisualStyle
  2
Conceptual
 70
     9
 71
     3
 72
     2
 73
     0
 90
        0
 40
-0.6
 41
-30.0
 62
     5
 63
     7
421
 16777215
 74
     2
 91
        2
 64
     7
 65
   257
 75
     1
175
     1
 42
40.0
 92
        8
 66
     7
 43
1.0
 76
     1
 77
     6
 78
     2
 67
     7
 79
     3
170
     0
171
     0
290
     0
174
     0
 93
        1
 44
0.0
173
     0
291
     0
 45
0.0
1001
ACAD
1000
AcDbSavedByObjectVersion
1070
     0
  0
VISUALSTYLE
  5
35
102
{ACAD_REACTORS
330
2A
102
}
330
2A
100
AcDbVisualStyle
  2
Dim
 70
    11
 71
     2
 72
     2
 73
     0
 90
        0
 40
-0.6
 41
-30.0
 62
     5
 63
     7
421
 16777215
 74
     1
 91
        4
 64
     7
 65
   257
 75
     1
175
     1
 42
1.0
 92
        8
 66
     7
 43
1.0
 76
     1
 77
     6
 78
     2
 67
     7
 79
     5
170
     0
171
     0
290
     0
174
     0
 93
        1
 44
-50.0
173
     0
291
     1
 45
0.0
1001
ACAD
1000
AcDbSavedByObjectVersion
1070
     0
  0
VISUALSTYLE
  5
39
102
{ACAD_REACTORS
330
2A
102
}
330
2A
100
AcDbVisualStyle
  2
Facepattern
 70
    15
 71
     2
 72
     2
 73
     0
 90
        0
 40
-0.6
 41
-30.0
 62
     5
 63
     7
421
 16777215
 74
     1
 91
        4
 64
     7
 65
   257
 75
     1
175
     1
 42
1.0
 92
        8
 66
     7
 43
1.0
 76
     1
 77
     6
 78
     2
 67
     7
 79
     5
170
     0
171
     0
290
     0
174
     0
 93
        1
 44
0.0
173
     0
291
     1
 45
0.0
1001
ACAD
1000
AcDbSavedByObjectVersion
1070
     0
  0
VISUALSTYLE
  5
2B
102
{ACAD_REACTORS
330
2A
102
}
330
2A
100
AcDbVisualStyle
  2
Flat
 70
     0
 71
     2
 72
     1
 73
     1
 90
        2
 40
-0.6
 41
30.0
 62
     5
 63
     7
421
 16777215
 74
     0
 91
        4
 64
     7
 65
   257
 75
     1
175
     1
 42
1.0
 92
        8
 66
     7
 43
1.0
 76
     1
 77
     6
 78
     2
 67
     7
 79
     5
170
     0
171
     0
290
     0
174
     0
 93
       13
 44
0.0
173
     0
291
     1
 45
0.0
1001
ACAD
1000
AcDbSavedByObjectVersion
1070
     0
  0
VISUALSTYLE
  5
2C
102
{ACAD_REACTORS
330
2A
102
}
330
2A
100
AcDbVisualStyle
  2
FlatWithEdges
 70
     1
 71
     2
 72
     1
 73
     1
 90
        2
 40
-0.6
 41
30.0
 62
     5
 63
     7
421
 16777215
 74
     1
 91
        4
 64
     7
 65
   257
 75
     1
175
     1
 42
1.0
 92
        0
 66
   257
 43
1.0
 76
     1
 77
     6
 78
     2
 67
     7
 79
     5
170
     0
171
     0
290
     0
174
     0
 93
       13
 44
0.0
173
     0
291
     1
 45
0.0
1001
ACAD
1000
AcDbSavedByObjectVersion
1070
     0
  0
VISUALSTYLE
  5
2D
102
{ACAD_REACTORS
330
2A
102
}
330
2A
100
AcDbVisualStyle
  2
Gouraud
 70
     2
 71
     2
 72
     2
 73
     1
 90
        2
 40
-0.6
 41
30.0
 62
     5
 63
     7
421
 16777215
 74
     0
 91
        4
 64
     7
 65
   257
 75
     1
175
     1
 42
1.0
 92
        0
 66
     7
 43
1.0
 76
     1
 77
     6
 78
     2
 67
     7
 79
     5
170
     0
171
     0
290
     0
174
     0
 93
       13
 44
0.0
173
     0
291
     1
 45
0.0
1001
ACAD
1000
AcDbSavedByObjectVersion
1070
     0
  0
VISUALSTYLE
  5
2E
102
{ACAD_REACTORS
330
2A
102
}
330
2A
100
AcDbVisualStyle
  2
GouraudWithEdges
 70
     3
 71
     2
 72
     2
 73
     1
 90
        2
 40
-0.6
 41
30.0
 62
     5
 63
     7
421
 16777215
 74
     1
 91
        4
 64
     7
 65
   257
 75
     1
175
     1
 42
1.0
 92
        0
 66
   257
 43
1.0
 76
     1
 77
     6
 78
     2
 67
     7
 79
     5
170
     0
171
     0
290
     0
174
     0
 93
       13
 44
0.0
173
     0
291
     1
 45
0.0
1001
ACAD
1000
AcDbSavedByObjectVersion
1070
     0
  0
VISUALSTYLE
  5
38
102
{ACAD_REACTORS
330
2A
102
}
330
2A
100
AcDbVisualStyle
  2
Linepattern
 70
    14
 71
     2
 72
     2
 73
     0
 90
        0
 40
-0.6
 41
-30.0
 62
     5
 63
     7
421
 16777215
 74
     1
 91
        4
 64
     7
 65
   257
 75
     7
175
     7
 42
1.0
 92
        8
 66
     7
 43
1.0
 76
     1
 77
     6
 78
     2
 67
     7
 79
     5
170
     0
171
     0
290
     0
174
     0
 93
        1
 44
0.0
173
     0
291
     1
 45
0.0
1001
ACAD
1000
AcDbSavedByObjectVersion
1070
     0
  0
VISUALSTYLE
  5
33
102
{ACAD_REACTORS
330
2A
102
}
330
2A
100
AcDbVisualStyle
  2
Realistic
 70
     8
 71
     2
 72
     2
 73
     0
 90
        0
 40
-0.6
 41
-30.0
 62
     5
 63
     7
421
 16777215
 74
     1
 91
        0
 64
     7
 65
   257
 75
     1
175
     1
 42
1.0
 92
        8
 66
     8
424
  7895160
 43
1.0
 76
     1
 77
     6
 78
     2
 67
     7
 79
     5
170
     0
171
     0
290
     0
174
     0
 93
       13
 44
0.0
173
     0
291
     0
 45
0.0
1001
ACAD
1000
AcDbSavedByObjectVersion
1070
     0
  0
VISUALSTYLE
  5
37
102
{ACAD_REACTORS
330
2A
102
}
330
2A
100
AcDbVisualStyle
  2
Thicken
 70
    13
 71
     2
 72
     2
 73
     0
 90
        0
 40
-0.6
 41
-30.0
 62
     5
 63
     7
421
 16777215
 74
     1
 91
        4
 64
     7
 65
   257
 75
     1
175
     1
 42
1.0
 92
       12
 66
     7
 43
1.0
 76
     1
 77
     6
 78
     2
 67
     7
 79
     5
170
     0
171
     0
290
     0
174
     0
 93
        1
 44
0.0
173
     0
291
     1
 45
0.0
1001
ACAD
1000
AcDbSavedByObjectVersion
1070
     0
  0
ENDSEC
  0
EOF
